<?xml version="1.0" encoding="UTF-8" standalone="no"?>
<!DOCTYPE svg PUBLIC "-//W3C//DTD SVG 1.1//EN" "http://www.w3.org/Graphics/SVG/1.1/DTD/svg11.dtd">
<svg width="100%" height="100%" viewBox="0 0 740 128" version="1.1" xmlns="http://www.w3.org/2000/svg" xmlns:xlink="http://www.w3.org/1999/xlink" xml:space="preserve" xmlns:serif="http://www.serif.com/" style="fill-rule:evenodd;clip-rule:evenodd;stroke-linejoin:round;stroke-miterlimit:2;">
    <g transform="matrix(1,0,0,1,-9402.687119,-424.806087)">
        <g transform="matrix(1,0,0,1,332,3102.220472)">
            <g transform="matrix(0.357043,0,0,0.275182,5792.185669,-2953.64199)">
                <path d="M9192.146,1075.984C9192.146,1134.918 9202.279,1147.451 9254.279,1147.451C9306.279,1147.451 9316.413,1134.918 9316.413,1075.984C9316.413,1016.784 9306.279,1004.251 9254.279,1004.251C9202.279,1004.251 9192.146,1016.784 9192.146,1075.984ZM9214.013,1075.984C9214.013,1027.184 9216.679,1021.318 9254.279,1021.318C9291.879,1021.318 9294.546,1027.184 9294.546,1075.984C9294.546,1124.518 9291.879,1130.384 9254.279,1130.384C9216.679,1130.384 9214.013,1124.518 9214.013,1075.984Z" style="fill:white;fill-rule:nonzero;"/>
                <path d="M9408.679,1021.318C9444.413,1021.318 9447.346,1034.118 9447.346,1075.984C9447.346,1121.318 9441.213,1130.384 9408.679,1130.384C9371.079,1130.384 9368.946,1109.051 9368.946,1075.984C9368.946,1038.918 9368.946,1021.318 9408.679,1021.318ZM9368.946,1005.851L9347.879,1005.851L9347.879,1206.384L9368.946,1206.384L9368.946,1129.318L9369.479,1129.318C9377.479,1145.584 9398.546,1147.451 9414.546,1147.451C9455.613,1147.451 9469.213,1131.451 9469.213,1075.984C9469.213,1034.118 9465.479,1004.251 9414.546,1004.251C9396.946,1004.251 9378.013,1007.451 9369.479,1023.451L9368.946,1022.918L9368.946,1005.851Z" style="fill:white;fill-rule:nonzero;"/>
                <path d="M9598.013,1103.451L9598.013,1108.784C9598.013,1128.518 9588.679,1130.384 9559.879,1130.384C9522.013,1130.384 9518.813,1124.784 9518.813,1080.518L9619.613,1080.518L9619.613,1066.384C9619.613,1014.651 9605.213,1004.251 9559.879,1004.251C9509.746,1004.251 9496.946,1017.851 9496.946,1075.984C9496.946,1129.318 9505.213,1147.451 9559.879,1147.451C9591.079,1147.451 9619.613,1145.584 9619.613,1108.518L9619.613,1103.451L9598.013,1103.451ZM9518.813,1063.451C9520.413,1031.184 9521.746,1021.318 9559.879,1021.318C9591.879,1021.318 9596.679,1023.718 9597.746,1063.451L9518.813,1063.451Z" style="fill:white;fill-rule:nonzero;"/>
                <path d="M9673.213,1005.851L9652.146,1005.851L9652.146,1145.851L9673.213,1145.851L9673.213,1064.251C9673.213,1031.984 9680.679,1021.318 9715.079,1021.318C9738.813,1021.318 9748.679,1025.584 9748.679,1051.184L9748.679,1145.851L9769.746,1145.851L9769.746,1052.784C9770.279,1013.851 9752.946,1004.251 9716.946,1004.251C9700.946,1004.251 9680.413,1006.118 9673.746,1022.918L9673.213,1022.918L9673.213,1005.851Z" style="fill:white;fill-rule:nonzero;"/>
                <path d="M9917.479,1037.051C9917.479,1005.318 9887.346,1004.251 9862.813,1004.251C9824.946,1004.251 9801.746,1005.051 9801.746,1045.584C9801.746,1085.318 9832.413,1082.118 9862.813,1084.251C9888.413,1085.851 9899.346,1081.051 9899.346,1107.184C9899.346,1131.984 9877.213,1128.784 9862.813,1128.784C9830.813,1128.784 9822.546,1125.851 9822.546,1112.518L9822.546,1101.584L9800.679,1101.584L9800.679,1114.651C9800.679,1145.851 9832.413,1147.451 9862.813,1147.451C9894.013,1147.451 9921.213,1145.851 9921.213,1106.384C9921.213,1060.784 9888.413,1066.384 9852.413,1064.251C9830.546,1063.184 9823.613,1065.051 9823.613,1039.984C9823.613,1022.651 9836.413,1022.918 9862.813,1022.918C9884.946,1022.918 9895.613,1022.918 9895.613,1037.051L9895.613,1042.384L9917.479,1042.384L9917.479,1037.051Z" style="fill:white;fill-rule:nonzero;"/>
                <path d="M9945.479,1075.984C9945.479,1134.918 9955.613,1147.451 10007.613,1147.451C10059.613,1147.451 10069.746,1134.918 10069.746,1075.984C10069.746,1016.784 10059.613,1004.251 10007.613,1004.251C9955.613,1004.251 9945.479,1016.784 9945.479,1075.984ZM9967.346,1075.984C9967.346,1027.184 9970.013,1021.318 10007.613,1021.318C10045.213,1021.318 10047.879,1027.184 10047.879,1075.984C10047.879,1124.518 10045.213,1130.384 10007.613,1130.384C9970.013,1130.384 9967.346,1124.518 9967.346,1075.984Z" style="fill:white;fill-rule:nonzero;"/>
                <path d="M10195.613,1145.851L10216.946,1145.851L10216.946,1005.851L10195.879,1005.851L10195.879,1092.251C10195.879,1125.584 10180.679,1130.384 10151.079,1130.384C10123.879,1130.384 10122.279,1118.384 10122.279,1095.718L10122.279,1005.851L10101.213,1005.851L10101.213,1095.718C10101.213,1132.518 10114.279,1147.451 10151.346,1147.451C10169.746,1147.451 10187.613,1144.251 10195.079,1127.184L10195.613,1127.184L10195.613,1145.851Z" style="fill:white;fill-rule:nonzero;"/>
                <path d="M10251.079,1005.851L10251.079,1145.851L10272.146,1145.851L10272.146,1058.651C10271.613,1033.851 10280.146,1021.318 10306.279,1021.318C10323.879,1021.318 10329.746,1027.184 10329.746,1044.518L10329.746,1053.851L10349.746,1053.851L10349.746,1043.718C10349.746,1017.584 10337.746,1004.251 10310.813,1004.251C10295.079,1004.251 10278.279,1008.251 10271.079,1023.718L10270.546,1023.184L10271.613,1005.851L10251.079,1005.851Z" style="fill:white;fill-rule:nonzero;"/>
                <path d="M10467.079,1095.184L10467.079,1102.118C10467.079,1127.451 10457.479,1130.384 10431.079,1130.384C10390.013,1130.384 10388.413,1118.384 10388.413,1078.918C10388.413,1034.118 10389.213,1021.318 10426.546,1021.318C10450.813,1021.318 10464.679,1021.851 10464.679,1047.184L10464.679,1051.451L10485.746,1051.451L10485.746,1047.718C10485.746,1007.984 10459.079,1004.251 10425.213,1004.251C10374.546,1004.251 10366.546,1027.451 10366.546,1073.051C10366.546,1125.051 10370.546,1147.451 10428.679,1147.451C10462.013,1147.451 10488.146,1142.384 10488.146,1102.918L10488.146,1095.184L10467.079,1095.184Z" style="fill:white;fill-rule:nonzero;"/>
                <path d="M10614.013,1103.451L10614.013,1108.784C10614.013,1128.518 10604.679,1130.384 10575.879,1130.384C10538.013,1130.384 10534.813,1124.784 10534.813,1080.518L10635.613,1080.518L10635.613,1066.384C10635.613,1014.651 10621.213,1004.251 10575.879,1004.251C10525.746,1004.251 10512.946,1017.851 10512.946,1075.984C10512.946,1129.318 10521.213,1147.451 10575.879,1147.451C10607.079,1147.451 10635.613,1145.584 10635.613,1108.518L10635.613,1103.451L10614.013,1103.451ZM10534.813,1063.451C10536.413,1031.184 10537.746,1021.318 10575.879,1021.318C10607.879,1021.318 10612.679,1023.718 10613.746,1063.451L10534.813,1063.451Z" style="fill:white;fill-rule:nonzero;"/>
            </g>
            <g transform="matrix(0.580352,0,0,0.330075,3733.588741,-2932.860136)">
                <path d="M9330.546,1037.051C9337.213,1005.318 9307.346,1004.251 9282.813,1004.251C9244.946,1004.251 9221.479,1005.051 9212.946,1045.584C9204.413,1085.318 9235.879,1082.118 9265.746,1084.251C9291.079,1085.851 9303.079,1081.051 9297.479,1107.184C9292.146,1131.984 9270.813,1128.784 9256.413,1128.784C9224.413,1128.784 9216.679,1125.851 9219.613,1112.518L9221.746,1101.584L9199.879,1101.584L9197.213,1114.651C9190.546,1145.851 9222.013,1147.451 9252.413,1147.451C9283.613,1147.451 9311.079,1145.851 9319.346,1106.384C9329.213,1060.784 9295.079,1066.384 9259.613,1064.251C9238.013,1063.184 9230.546,1065.051 9235.879,1039.984C9239.613,1022.651 9252.413,1022.918 9278.813,1022.918C9300.946,1022.918 9311.613,1022.918 9308.679,1037.051L9307.346,1042.384L9329.213,1042.384L9330.546,1037.051Z" style="fill:white;fill-rule:nonzero;"/>
                <path d="M9443.613,1005.851L9389.479,1005.851L9396.679,971.984L9375.613,971.984L9368.413,1005.851L9349.746,1005.851L9346.013,1022.918L9364.679,1022.918L9347.079,1105.318C9340.146,1138.118 9345.746,1147.451 9378.546,1147.451C9407.346,1147.451 9421.479,1134.384 9427.346,1106.651L9429.746,1096.251L9409.746,1096.251L9407.346,1106.651C9404.679,1119.984 9402.279,1130.384 9382.546,1130.384C9367.079,1130.384 9363.879,1126.918 9366.813,1111.718L9385.746,1022.918L9439.879,1022.918L9443.613,1005.851Z" style="fill:white;fill-rule:nonzero;"/>
                <path d="M9531.079,1145.851L9552.413,1145.851L9582.279,1005.851L9561.213,1005.851L9542.813,1092.251C9535.613,1125.584 9519.346,1130.384 9489.746,1130.384C9462.546,1130.384 9463.613,1118.384 9468.413,1095.718L9487.613,1005.851L9466.546,1005.851L9447.346,1095.718C9439.613,1132.518 9449.479,1147.451 9486.546,1147.451C9504.946,1147.451 9523.346,1144.251 9534.546,1127.184L9535.079,1127.184L9531.079,1145.851Z" style="fill:white;fill-rule:nonzero;"/>
                <path d="M9648.946,1130.384C9618.813,1130.384 9610.546,1124.518 9620.946,1075.984C9631.346,1026.918 9639.879,1021.318 9672.146,1021.318C9706.546,1021.318 9707.613,1037.584 9699.613,1075.984C9690.279,1119.184 9681.746,1130.384 9648.946,1130.384ZM9684.679,1145.851L9705.746,1145.851L9748.146,945.851L9727.079,945.851L9710.813,1023.184L9710.279,1023.184C9707.613,1006.118 9684.679,1004.251 9669.213,1004.251C9619.079,1004.251 9607.879,1033.851 9599.079,1075.984C9590.013,1118.651 9588.946,1147.451 9638.813,1147.451C9657.746,1147.451 9676.146,1144.518 9687.879,1127.718L9688.413,1128.251L9684.679,1145.851Z" style="fill:white;fill-rule:nonzero;"/>
                <path d="M9793.213,1005.851L9772.146,1005.851L9742.279,1145.851L9763.346,1145.851L9793.213,1005.851ZM9805.746,945.851L9784.679,945.851L9779.879,969.051L9800.946,969.051L9805.746,945.851Z" style="fill:white;fill-rule:nonzero;"/>
                <path d="M9810.279,1075.984C9797.746,1134.918 9805.213,1147.451 9857.213,1147.451C9909.213,1147.451 9922.013,1134.918 9934.546,1075.984C9947.079,1016.784 9939.613,1004.251 9887.613,1004.251C9835.613,1004.251 9822.813,1016.784 9810.279,1075.984ZM9832.146,1075.984C9842.546,1027.184 9846.279,1021.318 9883.879,1021.318C9921.479,1021.318 9923.079,1027.184 9912.679,1075.984C9902.279,1124.518 9898.279,1130.384 9860.679,1130.384C9823.079,1130.384 9821.746,1124.518 9832.146,1075.984Z" style="fill:white;fill-rule:nonzero;"/>
            </g>
            <g transform="matrix(0.376419,0,0,0.316378,6076.752903,-2917.247314)">
                <path d="M9330.013,1005.851L9307.079,1005.851L9242.279,1129.851L9241.746,1129.851L9228.413,1005.851L9207.079,1005.851L9223.613,1145.851L9253.213,1145.851L9330.013,1005.851Z" style="fill:white;fill-rule:nonzero;"/>
            </g>
            <g transform="matrix(0.566869,0,0,0.627631,4393.034649,-3270.05596)">
                <path d="M9308.679,964.251C9358.279,964.251 9371.346,964.518 9360.146,1016.518L9347.613,1075.184C9336.679,1127.184 9323.613,1127.451 9274.013,1127.451C9224.946,1127.451 9211.879,1127.184 9222.813,1075.184L9235.346,1016.518C9246.546,964.518 9259.613,964.251 9308.679,964.251ZM9270.279,1147.451C9332.146,1147.451 9355.346,1139.184 9370.279,1075.184L9382.813,1016.518C9395.079,952.518 9375.346,944.251 9312.946,944.251C9251.079,944.251 9227.613,952.518 9212.679,1016.518L9200.146,1075.184C9187.879,1139.184 9207.879,1147.451 9270.279,1147.451Z" style="fill:white;fill-rule:nonzero;"/>
                <path d="M9421.213,1118.651L9397.479,1118.651L9391.613,1145.851L9415.346,1145.851L9421.213,1118.651Z" style="fill:white;fill-rule:nonzero;"/>
            </g>
            <g transform="matrix(0.755038,0,0,0.627631,2757.914795,-3269.161772)">
                <path d="M9340.146,945.851L9307.346,945.851L9239.613,1005.851L9250.813,1019.451L9314.013,963.184L9275.079,1145.851L9297.746,1145.851L9340.146,945.851Z" style="fill:white;fill-rule:nonzero;"/>
            </g>
        </g>
    </g>
</svg>
