<?xml version="1.0" encoding="UTF-8" standalone="no"?>
<!DOCTYPE svg PUBLIC "-//W3C//DTD SVG 1.1//EN" "http://www.w3.org/Graphics/SVG/1.1/DTD/svg11.dtd">
<svg width="100%" height="100%" viewBox="0 0 91 864" version="1.1" xmlns="http://www.w3.org/2000/svg" xmlns:xlink="http://www.w3.org/1999/xlink" xml:space="preserve" xmlns:serif="http://www.serif.com/" style="fill-rule:evenodd;clip-rule:evenodd;stroke-linejoin:round;stroke-miterlimit:2;">
    <g transform="matrix(1,0,0,1,-9229.787354,-1172.117253)">
        <g transform="matrix(1,0,0,1,0,3102.220472)">
            <g transform="matrix(1,0,0,0.5,6792,-2428.720472)">
                <path d="M2528,1024L2528,1030C2528,1031.656 2527.328,1033 2526.5,1033L2491.5,1033C2490.672,1033 2490,1031.656 2490,1030L2490,1024C2490,1022.344 2490.672,1021 2491.5,1021L2526.5,1021C2527.328,1021 2528,1022.344 2528,1024Z" style="fill:white;"/>
            </g>
            <g transform="matrix(1,0,0,0.5,6792,-2346.014123)">
                <path d="M2528,1024L2528,1030C2528,1031.656 2527.328,1033 2526.5,1033L2491.5,1033C2490.672,1033 2490,1031.656 2490,1030L2490,1024C2490,1022.344 2490.672,1021 2491.5,1021L2526.5,1021C2527.328,1021 2528,1022.344 2528,1024Z" style="fill:white;"/>
            </g>
            <g transform="matrix(1,0,0,0.5,6792,-2263.307773)">
                <path d="M2528,1024L2528,1030C2528,1031.656 2527.328,1033 2526.5,1033L2491.5,1033C2490.672,1033 2490,1031.656 2490,1030L2490,1024C2490,1022.344 2490.672,1021 2491.5,1021L2526.5,1021C2527.328,1021 2528,1022.344 2528,1024Z" style="fill:white;"/>
            </g>
            <g transform="matrix(0.936328,0,0,0.936328,592.244592,-104.908859)">
                <g transform="matrix(0.157895,0,0,0.5,8888.842105,-2195.565901)">
                    <path d="M2528,1024L2528,1030C2528,1031.656 2523.743,1033 2518.5,1033L2499.5,1033C2494.257,1033 2490,1031.656 2490,1030L2490,1024C2490,1022.344 2494.257,1021 2499.5,1021L2518.5,1021C2523.743,1021 2528,1022.344 2528,1024Z" style="fill:white;"/>
                </g>
                <g transform="matrix(0.157895,0,0,0.5,8899.665546,-2195.565901)">
                    <path d="M2528,1024L2528,1030C2528,1031.656 2523.743,1033 2518.5,1033L2499.5,1033C2494.257,1033 2490,1031.656 2490,1030L2490,1024C2490,1022.344 2494.257,1021 2499.5,1021L2518.5,1021C2523.743,1021 2528,1022.344 2528,1024Z" style="fill:white;"/>
                </g>
                <g transform="matrix(0.157895,0,0,0.5,8910.488986,-2195.565901)">
                    <path d="M2528,1024L2528,1030C2528,1031.656 2523.743,1033 2518.5,1033L2499.5,1033C2494.257,1033 2490,1031.656 2490,1030L2490,1024C2490,1022.344 2494.257,1021 2499.5,1021L2518.5,1021C2523.743,1021 2528,1022.344 2528,1024Z" style="fill:white;"/>
                </g>
                <g transform="matrix(0.157895,0,0,0.5,8921.312426,-2195.565901)">
                    <path d="M2528,1024L2528,1030C2528,1031.656 2523.743,1033 2518.5,1033L2499.5,1033C2494.257,1033 2490,1031.656 2490,1030L2490,1024C2490,1022.344 2494.257,1021 2499.5,1021L2518.5,1021C2523.743,1021 2528,1022.344 2528,1024Z" style="fill:white;"/>
                </g>
            </g>
            <g transform="matrix(0.936328,0,0,0.936328,592.244592,-116.149731)">
                <g transform="matrix(0.157895,0,0,0.5,8888.842105,-2195.565901)">
                    <path d="M2528,1024L2528,1030C2528,1031.656 2523.743,1033 2518.5,1033L2499.5,1033C2494.257,1033 2490,1031.656 2490,1030L2490,1024C2490,1022.344 2494.257,1021 2499.5,1021L2518.5,1021C2523.743,1021 2528,1022.344 2528,1024Z" style="fill:white;"/>
                </g>
                <g transform="matrix(0.157895,0,0,0.5,8899.665546,-2195.565901)">
                    <path d="M2528,1024L2528,1030C2528,1031.656 2523.743,1033 2518.5,1033L2499.5,1033C2494.257,1033 2490,1031.656 2490,1030L2490,1024C2490,1022.344 2494.257,1021 2499.5,1021L2518.5,1021C2523.743,1021 2528,1022.344 2528,1024Z" style="fill:white;"/>
                </g>
                <g transform="matrix(0.157895,0,0,0.5,8910.488986,-2195.565901)">
                    <path d="M2528,1024L2528,1030C2528,1031.656 2523.743,1033 2518.5,1033L2499.5,1033C2494.257,1033 2490,1031.656 2490,1030L2490,1024C2490,1022.344 2494.257,1021 2499.5,1021L2518.5,1021C2523.743,1021 2528,1022.344 2528,1024Z" style="fill:white;"/>
                </g>
                <g transform="matrix(0.157895,0,0,0.5,8921.312426,-2195.565901)">
                    <path d="M2528,1024L2528,1030C2528,1031.656 2523.743,1033 2518.5,1033L2499.5,1033C2494.257,1033 2490,1031.656 2490,1030L2490,1024C2490,1022.344 2494.257,1021 2499.5,1021L2518.5,1021C2523.743,1021 2528,1022.344 2528,1024Z" style="fill:white;"/>
                </g>
            </g>
            <g transform="matrix(0.936328,0,0,0.936328,592.244592,-127.390603)">
                <g transform="matrix(0.157895,0,0,0.5,8888.842105,-2195.565901)">
                    <path d="M2528,1024L2528,1030C2528,1031.656 2523.743,1033 2518.5,1033L2499.5,1033C2494.257,1033 2490,1031.656 2490,1030L2490,1024C2490,1022.344 2494.257,1021 2499.5,1021L2518.5,1021C2523.743,1021 2528,1022.344 2528,1024Z" style="fill:white;"/>
                </g>
                <g transform="matrix(0.157895,0,0,0.5,8899.665546,-2195.565901)">
                    <path d="M2528,1024L2528,1030C2528,1031.656 2523.743,1033 2518.5,1033L2499.5,1033C2494.257,1033 2490,1031.656 2490,1030L2490,1024C2490,1022.344 2494.257,1021 2499.5,1021L2518.5,1021C2523.743,1021 2528,1022.344 2528,1024Z" style="fill:white;"/>
                </g>
                <g transform="matrix(0.157895,0,0,0.5,8910.488986,-2195.565901)">
                    <path d="M2528,1024L2528,1030C2528,1031.656 2523.743,1033 2518.5,1033L2499.5,1033C2494.257,1033 2490,1031.656 2490,1030L2490,1024C2490,1022.344 2494.257,1021 2499.5,1021L2518.5,1021C2523.743,1021 2528,1022.344 2528,1024Z" style="fill:white;"/>
                </g>
                <g transform="matrix(0.157895,0,0,0.5,8921.312426,-2195.565901)">
                    <path d="M2528,1024L2528,1030C2528,1031.656 2523.743,1033 2518.5,1033L2499.5,1033C2494.257,1033 2490,1031.656 2490,1030L2490,1024C2490,1022.344 2494.257,1021 2499.5,1021L2518.5,1021C2523.743,1021 2528,1022.344 2528,1024Z" style="fill:white;"/>
                </g>
            </g>
            <g transform="matrix(0.936328,0,0,0.936328,592.244592,-138.631475)">
                <g transform="matrix(0.157895,0,0,0.5,8888.842105,-2195.565901)">
                    <path d="M2528,1024L2528,1030C2528,1031.656 2523.743,1033 2518.5,1033L2499.5,1033C2494.257,1033 2490,1031.656 2490,1030L2490,1024C2490,1022.344 2494.257,1021 2499.5,1021L2518.5,1021C2523.743,1021 2528,1022.344 2528,1024Z" style="fill:white;"/>
                </g>
                <g transform="matrix(0.157895,0,0,0.5,8899.665546,-2195.565901)">
                    <path d="M2528,1024L2528,1030C2528,1031.656 2523.743,1033 2518.5,1033L2499.5,1033C2494.257,1033 2490,1031.656 2490,1030L2490,1024C2490,1022.344 2494.257,1021 2499.5,1021L2518.5,1021C2523.743,1021 2528,1022.344 2528,1024Z" style="fill:white;"/>
                </g>
                <g transform="matrix(0.157895,0,0,0.5,8910.488986,-2195.565901)">
                    <path d="M2528,1024L2528,1030C2528,1031.656 2523.743,1033 2518.5,1033L2499.5,1033C2494.257,1033 2490,1031.656 2490,1030L2490,1024C2490,1022.344 2494.257,1021 2499.5,1021L2518.5,1021C2523.743,1021 2528,1022.344 2528,1024Z" style="fill:white;"/>
                </g>
                <g transform="matrix(0.157895,0,0,0.5,8921.312426,-2195.565901)">
                    <path d="M2528,1024L2528,1030C2528,1031.656 2523.743,1033 2518.5,1033L2499.5,1033C2494.257,1033 2490,1031.656 2490,1030L2490,1024C2490,1022.344 2494.257,1021 2499.5,1021L2518.5,1021C2523.743,1021 2528,1022.344 2528,1024Z" style="fill:white;"/>
                </g>
            </g>
            <g transform="matrix(0.936328,0,0,0.936328,592.244592,-149.872347)">
                <g transform="matrix(0.157895,0,0,0.5,8888.842105,-2195.565901)">
                    <path d="M2528,1024L2528,1030C2528,1031.656 2523.743,1033 2518.5,1033L2499.5,1033C2494.257,1033 2490,1031.656 2490,1030L2490,1024C2490,1022.344 2494.257,1021 2499.5,1021L2518.5,1021C2523.743,1021 2528,1022.344 2528,1024Z" style="fill:white;"/>
                </g>
                <g transform="matrix(0.157895,0,0,0.5,8899.665546,-2195.565901)">
                    <path d="M2528,1024L2528,1030C2528,1031.656 2523.743,1033 2518.5,1033L2499.5,1033C2494.257,1033 2490,1031.656 2490,1030L2490,1024C2490,1022.344 2494.257,1021 2499.5,1021L2518.5,1021C2523.743,1021 2528,1022.344 2528,1024Z" style="fill:white;"/>
                </g>
                <g transform="matrix(0.157895,0,0,0.5,8910.488986,-2195.565901)">
                    <path d="M2528,1024L2528,1030C2528,1031.656 2523.743,1033 2518.5,1033L2499.5,1033C2494.257,1033 2490,1031.656 2490,1030L2490,1024C2490,1022.344 2494.257,1021 2499.5,1021L2518.5,1021C2523.743,1021 2528,1022.344 2528,1024Z" style="fill:white;"/>
                </g>
                <g transform="matrix(0.157895,0,0,0.5,8921.312426,-2195.565901)">
                    <path d="M2528,1024L2528,1030C2528,1031.656 2523.743,1033 2518.5,1033L2499.5,1033C2494.257,1033 2490,1031.656 2490,1030L2490,1024C2490,1022.344 2494.257,1021 2499.5,1021L2518.5,1021C2523.743,1021 2528,1022.344 2528,1024Z" style="fill:white;"/>
                </g>
            </g>
            <g transform="matrix(0.936328,0,0,0.936328,592.244592,-161.113219)">
                <g transform="matrix(0.157895,0,0,0.5,8888.842105,-2195.565901)">
                    <path d="M2528,1024L2528,1030C2528,1031.656 2523.743,1033 2518.5,1033L2499.5,1033C2494.257,1033 2490,1031.656 2490,1030L2490,1024C2490,1022.344 2494.257,1021 2499.5,1021L2518.5,1021C2523.743,1021 2528,1022.344 2528,1024Z" style="fill:white;"/>
                </g>
                <g transform="matrix(0.157895,0,0,0.5,8899.665546,-2195.565901)">
                    <path d="M2528,1024L2528,1030C2528,1031.656 2523.743,1033 2518.5,1033L2499.5,1033C2494.257,1033 2490,1031.656 2490,1030L2490,1024C2490,1022.344 2494.257,1021 2499.5,1021L2518.5,1021C2523.743,1021 2528,1022.344 2528,1024Z" style="fill:white;"/>
                </g>
                <g transform="matrix(0.157895,0,0,0.5,8910.488986,-2195.565901)">
                    <path d="M2528,1024L2528,1030C2528,1031.656 2523.743,1033 2518.5,1033L2499.5,1033C2494.257,1033 2490,1031.656 2490,1030L2490,1024C2490,1022.344 2494.257,1021 2499.5,1021L2518.5,1021C2523.743,1021 2528,1022.344 2528,1024Z" style="fill:white;"/>
                </g>
                <g transform="matrix(0.157895,0,0,0.5,8921.312426,-2195.565901)">
                    <path d="M2528,1024L2528,1030C2528,1031.656 2523.743,1033 2518.5,1033L2499.5,1033C2494.257,1033 2490,1031.656 2490,1030L2490,1024C2490,1022.344 2494.257,1021 2499.5,1021L2518.5,1021C2523.743,1021 2528,1022.344 2528,1024Z" style="fill:white;"/>
                </g>
            </g>
            <g transform="matrix(1,0,0,0.5,6792,-2180.601423)">
                <path d="M2528,1024L2528,1030C2528,1031.656 2527.328,1033 2526.5,1033L2491.5,1033C2490.672,1033 2490,1031.656 2490,1030L2490,1024C2490,1022.344 2490.672,1021 2491.5,1021L2526.5,1021C2527.328,1021 2528,1022.344 2528,1024Z" style="fill:white;"/>
            </g>
            <g transform="matrix(1,0,0,0.5,6792,-2097.895073)">
                <path d="M2528,1024L2528,1030C2528,1031.656 2527.328,1033 2526.5,1033L2491.5,1033C2490.672,1033 2490,1031.656 2490,1030L2490,1024C2490,1022.344 2490.672,1021 2491.5,1021L2526.5,1021C2527.328,1021 2528,1022.344 2528,1024Z" style="fill:white;"/>
            </g>
            <g transform="matrix(1,0,0,0.5,6792,-2015.188724)">
                <path d="M2528,1024L2528,1030C2528,1031.656 2527.328,1033 2526.5,1033L2491.5,1033C2490.672,1033 2490,1031.656 2490,1030L2490,1024C2490,1022.344 2490.672,1021 2491.5,1021L2526.5,1021C2527.328,1021 2528,1022.344 2528,1024Z" style="fill:white;"/>
            </g>
            <g transform="matrix(1,0,0,0.5,6792,-1932.482374)">
                <path d="M2528,1024L2528,1030C2528,1031.656 2527.328,1033 2526.5,1033L2491.5,1033C2490.672,1033 2490,1031.656 2490,1030L2490,1024C2490,1022.344 2490.672,1021 2491.5,1021L2526.5,1021C2527.328,1021 2528,1022.344 2528,1024Z" style="fill:white;"/>
            </g>
            <g transform="matrix(1,0,0,0.5,6792,-1849.776024)">
                <path d="M2528,1024L2528,1030C2528,1031.656 2527.328,1033 2526.5,1033L2491.5,1033C2490.672,1033 2490,1031.656 2490,1030L2490,1024C2490,1022.344 2490.672,1021 2491.5,1021L2526.5,1021C2527.328,1021 2528,1022.344 2528,1024Z" style="fill:white;"/>
            </g>
            <g transform="matrix(1,0,0,0.5,6792,-1767.069674)">
                <path d="M2528,1024L2528,1030C2528,1031.656 2527.328,1033 2526.5,1033L2491.5,1033C2490.672,1033 2490,1031.656 2490,1030L2490,1024C2490,1022.344 2490.672,1021 2491.5,1021L2526.5,1021C2527.328,1021 2528,1022.344 2528,1024Z" style="fill:white;"/>
            </g>
            <g transform="matrix(1,0,0,0.5,6792,-1684.363325)">
                <path d="M2528,1024L2528,1030C2528,1031.656 2527.328,1033 2526.5,1033L2491.5,1033C2490.672,1033 2490,1031.656 2490,1030L2490,1024C2490,1022.344 2490.672,1021 2491.5,1021L2526.5,1021C2527.328,1021 2528,1022.344 2528,1024Z" style="fill:white;"/>
            </g>
            <g transform="matrix(1,0,0,0.5,6792,-1596.656975)">
                <path d="M2528,1024L2528,1030C2528,1031.656 2527.328,1033 2526.5,1033L2491.5,1033C2490.672,1033 2490,1031.656 2490,1030L2490,1024C2490,1022.344 2490.672,1021 2491.5,1021L2526.5,1021C2527.328,1021 2528,1022.344 2528,1024Z" style="fill:white;"/>
            </g>
            <g transform="matrix(1,0,0,1,206,-3222.220472)">
                <path d="M9023.787,1300.621L9023.787,1297.814C9026.432,1297.556 9028.277,1297.126 9029.321,1296.522C9030.366,1295.918 9031.145,1294.491 9031.661,1292.239L9034.55,1292.239L9034.55,1321.251L9030.644,1321.251L9030.644,1300.621L9023.787,1300.621Z" style="fill:white;fill-rule:nonzero;"/>
                <path d="M9054.244,1292.117C9058.015,1292.117 9060.741,1293.67 9062.423,1296.776C9063.725,1299.177 9064.376,1302.466 9064.376,1306.644C9064.376,1310.604 9063.786,1313.88 9062.606,1316.47C9060.897,1320.187 9058.103,1322.045 9054.224,1322.045C9050.724,1322.045 9048.12,1320.526 9046.411,1317.488C9044.987,1314.951 9044.275,1311.547 9044.275,1307.274C9044.275,1303.965 9044.702,1301.123 9045.557,1298.75C9047.157,1294.328 9050.053,1292.117 9054.244,1292.117ZM9054.203,1318.708C9056.102,1318.708 9057.614,1317.867 9058.74,1316.185C9059.866,1314.504 9060.429,1311.37 9060.429,1306.786C9060.429,1303.477 9060.022,1300.754 9059.208,1298.617C9058.394,1296.481 9056.814,1295.413 9054.468,1295.413C9052.311,1295.413 9050.734,1296.427 9049.737,1298.455C9048.741,1300.482 9048.242,1307.417 9048.242,1307.417C9048.242,1307.417 9048.561,1312.774 9049.198,1314.578C9050.175,1317.332 9051.843,1318.708 9054.203,1318.708Z" style="fill:white;fill-rule:nonzero;"/>
                <path d="M9048.507,1397.545C9048.615,1399.566 9049.395,1400.963 9050.846,1401.736C9051.592,1402.143 9052.433,1402.347 9053.369,1402.347C9055.119,1402.347 9056.611,1401.618 9057.845,1400.16C9059.079,1398.702 9059.954,1395.741 9060.469,1391.279C9059.656,1392.568 9058.649,1393.473 9057.448,1393.995C9056.248,1394.517 9054.956,1394.778 9053.573,1394.778C9050.765,1394.778 9048.544,1393.904 9046.91,1392.154C9045.275,1390.404 9044.458,1388.153 9044.458,1385.399C9044.458,1382.754 9045.265,1380.428 9046.879,1378.421C9048.493,1376.414 9050.873,1375.41 9054.02,1375.41C9058.265,1375.41 9061.195,1377.322 9062.809,1381.147C9063.704,1383.25 9064.152,1385.881 9064.152,1389.041C9064.152,1392.608 9063.616,1395.769 9062.545,1398.522C9060.768,1403.106 9057.757,1405.399 9053.511,1405.399C9050.663,1405.399 9048.5,1404.653 9047.021,1403.161C9045.543,1401.669 9044.804,1399.797 9044.804,1397.545L9048.507,1397.545ZM9054.061,1391.564C9055.512,1391.564 9056.838,1391.086 9058.038,1390.13C9059.239,1389.173 9059.839,1387.502 9059.839,1385.114C9059.839,1382.971 9059.3,1381.374 9058.221,1380.323C9057.143,1379.272 9055.77,1378.746 9054.101,1378.746C9052.311,1378.746 9050.89,1379.347 9049.839,1380.547C9048.788,1381.747 9048.262,1383.351 9048.262,1385.359C9048.262,1387.257 9048.724,1388.766 9049.646,1389.885C9050.568,1391.004 9052.04,1391.564 9054.061,1391.564Z" style="fill:white;fill-rule:nonzero;"/>
                <path d="M9054.305,1470.991C9055.919,1470.991 9057.18,1470.54 9058.089,1469.638C9058.998,1468.736 9059.452,1467.661 9059.452,1466.413C9059.452,1465.328 9059.018,1464.331 9058.15,1463.423C9057.282,1462.514 9055.96,1462.059 9054.183,1462.059C9052.42,1462.059 9051.145,1462.514 9050.358,1463.423C9049.571,1464.331 9049.178,1465.396 9049.178,1466.617C9049.178,1467.987 9049.687,1469.058 9050.704,1469.831C9051.721,1470.604 9052.921,1470.991 9054.305,1470.991ZM9054.529,1485.416C9056.224,1485.416 9057.631,1484.958 9058.75,1484.042C9059.869,1483.127 9060.429,1481.76 9060.429,1479.943C9060.429,1478.057 9059.852,1476.627 9058.699,1475.65C9057.547,1474.673 9056.068,1474.185 9054.264,1474.185C9052.515,1474.185 9051.087,1474.684 9049.982,1475.68C9048.876,1476.677 9048.323,1478.057 9048.323,1479.821C9048.323,1481.34 9048.829,1482.652 9049.839,1483.757C9050.85,1484.863 9052.413,1485.416 9054.529,1485.416ZM9049.32,1472.395C9048.303,1471.961 9047.51,1471.452 9046.94,1470.869C9045.869,1469.784 9045.333,1468.373 9045.333,1466.637C9045.333,1464.467 9046.119,1462.602 9047.693,1461.042C9049.266,1459.482 9051.497,1458.703 9054.386,1458.703C9057.18,1458.703 9059.371,1459.438 9060.958,1460.91C9062.545,1462.382 9063.338,1464.101 9063.338,1466.067C9063.338,1467.885 9062.877,1469.357 9061.955,1470.482C9061.439,1471.12 9060.639,1471.744 9059.554,1472.354C9060.761,1472.91 9061.711,1473.548 9062.402,1474.267C9063.691,1475.623 9064.335,1477.386 9064.335,1479.556C9064.335,1482.12 9063.474,1484.293 9061.751,1486.077C9060.029,1487.86 9057.594,1488.752 9054.447,1488.752C9051.613,1488.752 9049.215,1487.982 9047.255,1486.443C9045.295,1484.904 9044.316,1482.669 9044.316,1479.739C9044.316,1478.017 9044.736,1476.528 9045.577,1475.274C9046.418,1474.019 9047.666,1473.059 9049.32,1472.395Z" style="fill:white;fill-rule:nonzero;"/>
                <path d="M9064.762,1542.606L9064.762,1545.8C9063.826,1546.708 9062.582,1548.289 9061.029,1550.54C9059.476,1552.792 9058.103,1555.219 9056.909,1557.824C9055.729,1560.36 9054.834,1562.673 9054.224,1564.761C9053.83,1566.104 9053.322,1568.267 9052.698,1571.251L9048.649,1571.251C9049.571,1565.69 9051.606,1560.157 9054.753,1554.65C9056.611,1551.422 9058.564,1548.634 9060.612,1546.288L9044.499,1546.288L9044.499,1542.606L9064.762,1542.606Z" style="fill:white;fill-rule:nonzero;"/>
                <path d="M9055.159,1625.329C9058.415,1625.329 9060.683,1626.173 9061.965,1627.861C9063.247,1629.55 9063.887,1631.29 9063.887,1633.08L9060.266,1633.08C9060.049,1631.927 9059.703,1631.025 9059.228,1630.374C9058.347,1629.153 9057.011,1628.543 9055.22,1628.543C9053.172,1628.543 9051.545,1629.489 9050.338,1631.381C9049.131,1633.273 9048.459,1635.983 9048.323,1639.509C9049.164,1638.275 9050.222,1637.352 9051.497,1636.742C9052.664,1636.2 9053.966,1635.928 9055.404,1635.928C9057.845,1635.928 9059.974,1636.708 9061.792,1638.268C9063.609,1639.828 9064.518,1642.154 9064.518,1645.246C9064.518,1647.891 9063.657,1650.234 9061.934,1652.276C9060.212,1654.317 9057.757,1655.337 9054.569,1655.337C9051.843,1655.337 9049.49,1654.303 9047.51,1652.235C9045.529,1650.166 9044.539,1646.684 9044.539,1641.788C9044.539,1638.166 9044.98,1635.094 9045.862,1632.571C9047.557,1627.743 9050.656,1625.329 9055.159,1625.329ZM9054.895,1652.082C9056.821,1652.082 9058.262,1651.435 9059.218,1650.139C9060.174,1648.844 9060.653,1647.315 9060.653,1645.551C9060.653,1644.06 9060.225,1642.639 9059.371,1641.289C9058.516,1639.94 9056.963,1639.265 9054.712,1639.265C9053.138,1639.265 9051.758,1639.787 9050.572,1640.831C9049.385,1641.876 9048.791,1643.449 9048.791,1645.551C9048.791,1647.396 9049.331,1648.946 9050.409,1650.2C9051.487,1651.455 9052.983,1652.082 9054.895,1652.082Z" style="fill:white;fill-rule:nonzero;"/>
                <path d="M9048.12,1730.492C9048.364,1732.581 9049.334,1734.025 9051.029,1734.826C9051.897,1735.232 9052.901,1735.436 9054.04,1735.436C9056.211,1735.436 9057.818,1734.744 9058.862,1733.361C9059.907,1731.977 9060.429,1730.445 9060.429,1728.763C9060.429,1726.728 9059.808,1725.155 9058.567,1724.043C9057.326,1722.931 9055.838,1722.374 9054.101,1722.374C9052.84,1722.374 9051.758,1722.619 9050.856,1723.107C9049.954,1723.595 9049.185,1724.273 9048.547,1725.141L9045.373,1724.958L9047.591,1709.272L9062.728,1709.272L9062.728,1712.812L9050.338,1712.812L9049.097,1720.91C9049.775,1720.394 9050.419,1720.008 9051.029,1719.75C9052.114,1719.302 9053.369,1719.079 9054.793,1719.079C9057.465,1719.079 9059.73,1719.94 9061.588,1721.662C9063.447,1723.385 9064.376,1725.569 9064.376,1728.213C9064.376,1730.967 9063.525,1733.395 9061.822,1735.497C9060.12,1737.599 9057.404,1738.65 9053.674,1738.65C9051.301,1738.65 9049.202,1737.982 9047.377,1736.646C9045.553,1735.31 9044.533,1733.259 9044.316,1730.492L9048.12,1730.492Z" style="fill:white;fill-rule:nonzero;"/>
                <path d="M9056.746,1810.936L9056.746,1797.732L9047.408,1810.936L9056.746,1810.936ZM9056.807,1821.251L9056.807,1814.131L9044.031,1814.131L9044.031,1810.55L9057.377,1792.036L9060.469,1792.036L9060.469,1810.936L9064.762,1810.936L9064.762,1814.131L9060.469,1814.131L9060.469,1821.251L9056.807,1821.251Z" style="fill:white;fill-rule:nonzero;"/>
                <path d="M9053.796,1905.378C9050.351,1905.378 9047.852,1904.432 9046.299,1902.54C9044.746,1900.648 9043.97,1898.346 9043.97,1895.633L9047.795,1895.633C9047.957,1897.518 9048.31,1898.888 9048.852,1899.743C9049.802,1901.275 9051.518,1902.042 9054,1902.042C9055.926,1902.042 9057.472,1901.526 9058.638,1900.495C9059.805,1899.465 9060.388,1898.135 9060.388,1896.508C9060.388,1894.5 9059.774,1893.097 9058.547,1892.296C9057.319,1891.496 9055.614,1891.096 9053.43,1891.096C9053.186,1891.096 9052.938,1891.099 9052.688,1891.106C9052.437,1891.113 9052.182,1891.123 9051.925,1891.137L9051.925,1887.902C9052.304,1887.942 9052.623,1887.97 9052.881,1887.983C9053.138,1887.997 9053.417,1888.003 9053.715,1888.003C9055.085,1888.003 9056.211,1887.786 9057.092,1887.352C9058.638,1886.593 9059.412,1885.237 9059.412,1883.283C9059.412,1881.832 9058.896,1880.713 9057.865,1879.926C9056.835,1879.14 9055.634,1878.746 9054.264,1878.746C9051.823,1878.746 9050.134,1879.56 9049.198,1881.188C9048.683,1882.083 9048.391,1883.358 9048.323,1885.013L9044.702,1885.013C9044.702,1882.843 9045.136,1880.998 9046.004,1879.479C9047.496,1876.766 9050.121,1875.41 9053.878,1875.41C9056.848,1875.41 9059.147,1876.071 9060.775,1877.394C9062.402,1878.716 9063.216,1880.632 9063.216,1883.141C9063.216,1884.931 9062.735,1886.383 9061.772,1887.495C9061.175,1888.187 9060.402,1888.729 9059.452,1889.122C9060.985,1889.543 9062.182,1890.353 9063.043,1891.554C9063.904,1892.754 9064.335,1894.222 9064.335,1895.958C9064.335,1898.739 9063.42,1901.004 9061.588,1902.754C9059.757,1904.503 9057.16,1905.378 9053.796,1905.378Z" style="fill:white;fill-rule:nonzero;"/>
                <path d="M9044.275,1987.918C9044.41,1985.409 9044.929,1983.225 9045.831,1981.367C9046.733,1979.509 9048.493,1977.82 9051.111,1976.301L9055.017,1974.043C9056.767,1973.025 9057.994,1972.157 9058.699,1971.439C9059.812,1970.313 9060.368,1969.024 9060.368,1967.573C9060.368,1965.878 9059.859,1964.531 9058.842,1963.534C9057.825,1962.538 9056.468,1962.039 9054.773,1962.039C9052.264,1962.039 9050.528,1962.989 9049.565,1964.887C9049.049,1965.905 9048.764,1967.315 9048.71,1969.119L9044.987,1969.119C9045.028,1966.583 9045.496,1964.514 9046.391,1962.914C9047.978,1960.093 9050.778,1958.682 9054.793,1958.682C9058.13,1958.682 9060.568,1959.584 9062.107,1961.388C9063.647,1963.192 9064.416,1965.199 9064.416,1967.41C9064.416,1969.743 9063.596,1971.737 9061.955,1973.392C9061.005,1974.355 9059.303,1975.521 9056.848,1976.891L9054.061,1978.437C9052.732,1979.17 9051.687,1979.868 9050.928,1980.533C9049.571,1981.713 9048.717,1983.022 9048.364,1984.459L9064.274,1984.459L9064.274,1987.918L9044.275,1987.918Z" style="fill:white;fill-rule:nonzero;"/>
                <path d="M9046.96,2050.621L9046.96,2047.814C9049.605,2047.556 9051.45,2047.126 9052.494,2046.522C9053.539,2045.918 9054.318,2044.491 9054.834,2042.239L9057.723,2042.239L9057.723,2071.251L9053.817,2071.251L9053.817,2050.621L9046.96,2050.621Z" style="fill:white;fill-rule:nonzero;"/>
                <path d="M9054.244,2125.451C9058.015,2125.451 9060.741,2127.004 9062.423,2130.11C9063.725,2132.51 9064.376,2135.799 9064.376,2139.977C9064.376,2143.937 9063.786,2147.213 9062.606,2149.804C9060.897,2153.52 9058.103,2155.378 9054.224,2155.378C9050.724,2155.378 9048.12,2153.859 9046.411,2150.821C9044.987,2148.285 9044.275,2144.88 9044.275,2140.608C9044.275,2137.298 9044.702,2134.457 9045.557,2132.083C9047.157,2127.661 9050.053,2125.451 9054.244,2125.451ZM9054.203,2152.042C9056.102,2152.042 9057.614,2151.201 9058.74,2149.519C9059.866,2147.837 9060.429,2144.704 9060.429,2140.119C9060.429,2136.81 9060.022,2134.087 9059.208,2131.951C9058.394,2129.815 9056.814,2128.746 9054.468,2128.746C9052.311,2128.746 9050.734,2129.76 9049.737,2131.788C9048.741,2133.816 9048.242,2136.803 9048.242,2140.75C9048.242,2143.72 9048.561,2146.108 9049.198,2147.912C9050.175,2150.665 9051.843,2152.042 9054.203,2152.042Z" style="fill:white;fill-rule:nonzero;"/>
            </g>
        </g>
    </g>
</svg>
