<?xml version="1.0" encoding="UTF-8" standalone="no"?>
<!DOCTYPE svg PUBLIC "-//W3C//DTD SVG 1.1//EN" "http://www.w3.org/Graphics/SVG/1.1/DTD/svg11.dtd">
<svg width="100%" height="100%" viewBox="0 0 513 85" version="1.1" xmlns="http://www.w3.org/2000/svg" xmlns:xlink="http://www.w3.org/1999/xlink" xml:space="preserve" xmlns:serif="http://www.serif.com/" style="fill-rule:evenodd;clip-rule:evenodd;stroke-linejoin:round;stroke-miterlimit:2;">
    <g transform="matrix(1,0,0,1,-9552.478107,-180.012349)">
        <g transform="matrix(1,0,0,1,0,3102.220472)">
            <g transform="matrix(0.454874,0,0,0.414873,5373.88282,-3313.952254)">
                <path d="M9331.346,945.851L9274.813,945.851L9186.279,1061.318L9186.279,1103.184L9295.079,1103.184L9295.079,1145.851L9331.346,1145.851L9331.346,1103.184L9354.813,1103.184L9354.813,1074.118L9331.346,1074.118L9331.346,945.851ZM9295.079,1074.118L9216.679,1074.118L9294.013,973.584L9295.079,973.584L9295.079,1074.118Z" style="fill:rgb(164,53,53);fill-rule:nonzero;"/>
            </g>
        </g>
        <g transform="matrix(1,0,0,1,0,3102.220472)">
            <g transform="matrix(0.454874,0,0,0.414873,5373.88282,-3313.952254)">
                <path d="M9463.879,978.651L9522.546,978.651L9522.546,945.851L9366.813,945.851L9366.813,978.651L9425.479,978.651L9425.479,1145.851L9463.879,1145.851L9463.879,978.651Z" style="fill:rgb(164,53,53);fill-rule:nonzero;"/>
            </g>
        </g>
        <g transform="matrix(1,0,0,1,0,3102.220472)">
            <g transform="matrix(0.454874,0,0,0.414873,5373.88282,-3313.952254)">
                <path d="M9636.413,1079.718C9654.813,1079.984 9661.746,1091.718 9661.746,1108.518L9661.746,1145.851L9700.146,1145.851L9700.146,1108.518C9700.146,1080.251 9693.479,1065.584 9666.279,1063.184L9666.279,1062.118C9700.146,1057.051 9701.746,1035.451 9701.746,1005.851C9701.746,960.518 9684.946,946.918 9641.213,945.851L9539.079,945.851L9539.079,1145.851L9577.479,1145.851L9577.479,1079.718L9636.413,1079.718ZM9577.479,1046.918L9577.479,978.651L9630.813,978.651C9658.279,978.651 9663.346,983.718 9663.346,1011.984C9663.346,1041.318 9656.413,1046.918 9628.146,1046.918L9577.479,1046.918Z" style="fill:rgb(164,53,53);fill-rule:nonzero;"/>
            </g>
        </g>
        <g transform="matrix(1,0,0,1,0,3102.220472)">
            <g transform="matrix(0.454874,0,0,0.414873,5373.88282,-3313.952254)">
                <path d="M9771.346,945.851L9732.946,945.851L9732.946,1145.851L9771.346,1145.851L9771.346,1060.251L9789.213,1060.251L9862.813,1145.851L9911.346,1145.851L9822.013,1043.451L9903.079,945.851L9855.879,945.851L9789.213,1027.451L9771.346,1027.451L9771.346,945.851Z" style="fill:rgb(164,53,53);fill-rule:nonzero;"/>
            </g>
        </g>
        <g transform="matrix(1,0,0,1,0,3102.220472)">
            <g transform="matrix(0.454874,0,0,0.414873,5351.88282,-3313.952254)">
                <path d="M10174.546,1012.784L10174.546,1001.851C10171.879,944.518 10143.346,944.251 10093.479,944.251C10034.546,944.251 10009.746,958.651 10009.746,1022.651L10009.746,1068.518C10010.546,1126.918 10023.079,1150.118 10093.479,1147.451C10143.079,1145.318 10177.479,1147.451 10176.679,1087.184L10176.679,1074.118L10138.279,1074.118L10138.279,1085.051C10138.279,1113.584 10124.413,1114.651 10093.479,1114.651C10053.213,1114.651 10048.413,1106.918 10048.146,1066.918L10048.146,1022.651C10048.146,983.451 10054.813,977.051 10093.479,977.051C10127.079,977.051 10136.146,978.651 10136.146,1001.851L10136.146,1012.784L10174.546,1012.784Z" style="fill:rgb(164,53,53);fill-rule:nonzero;"/>
            </g>
        </g>
        <g transform="matrix(1,0,0,1,0,3102.220472)">
            <g transform="matrix(0.454874,0,0,0.414873,5351.88282,-3313.952254)">
                <path d="M10360.146,1012.784L10360.146,1001.851C10357.479,944.518 10328.946,944.251 10279.079,944.251C10220.146,944.251 10195.346,958.651 10195.346,1022.651L10195.346,1068.518C10196.146,1126.918 10208.679,1150.118 10279.079,1147.451C10328.679,1145.318 10363.079,1147.451 10362.279,1087.184L10362.279,1074.118L10323.879,1074.118L10323.879,1085.051C10323.879,1113.584 10310.013,1114.651 10279.079,1114.651C10238.813,1114.651 10234.013,1106.918 10233.746,1066.918L10233.746,1022.651C10233.746,983.451 10240.413,977.051 10279.079,977.051C10312.679,977.051 10321.746,978.651 10321.746,1001.851L10321.746,1012.784L10360.146,1012.784Z" style="fill:rgb(164,53,53);fill-rule:nonzero;"/>
            </g>
        </g>
        <g transform="matrix(1,0,0,1,0,3102.220472)">
            <g transform="matrix(0.615385,0,0,0.615385,3810.923077,-3128.297396)">
                <rect x="9846" y="382" width="39" height="39" style="fill:rgb(163,53,53);"/>
            </g>
        </g>
    </g>
</svg>
