<?xml version="1.0" encoding="UTF-8" standalone="no"?>
<!DOCTYPE svg PUBLIC "-//W3C//DTD SVG 1.1//EN" "http://www.w3.org/Graphics/SVG/1.1/DTD/svg11.dtd">
<svg width="100%" height="100%" viewBox="0 0 146 428" version="1.1" xmlns="http://www.w3.org/2000/svg" xmlns:xlink="http://www.w3.org/1999/xlink" xml:space="preserve" xmlns:serif="http://www.serif.com/" style="fill-rule:evenodd;clip-rule:evenodd;stroke-linejoin:round;stroke-miterlimit:2;">
    <g transform="matrix(1,0,0,1,-10324.580737,-1168.402473)">
        <g transform="matrix(1,0,0,1,332,3102.220472)">
            <g transform="matrix(0.842105,0,0,0.5,8009.229326,-2433.543933)">
                <path d="M2528,1024L2528,1030C2528,1031.656 2527.202,1033 2526.219,1033L2491.781,1033C2490.798,1033 2490,1031.656 2490,1030L2490,1024C2490,1022.344 2490.798,1021 2491.781,1021L2526.219,1021C2527.202,1021 2528,1022.344 2528,1024Z" style="fill:white;"/>
            </g>
        </g>
        <g transform="matrix(1,0,0,1,332,3102.220472)">
            <g transform="matrix(0.842105,0,0,0.5,8009.229326,-2333.087583)">
                <path d="M2528,1024L2528,1030C2528,1031.656 2527.202,1033 2526.219,1033L2491.781,1033C2490.798,1033 2490,1031.656 2490,1030L2490,1024C2490,1022.344 2490.798,1021 2491.781,1021L2526.219,1021C2527.202,1021 2528,1022.344 2528,1024Z" style="fill:white;"/>
            </g>
        </g>
        <g transform="matrix(1,0,0,1,332,3102.220472)">
            <g transform="matrix(0.842105,0,0,0.5,8009.229326,-2232.631234)">
                <path d="M2528,1024L2528,1030C2528,1031.656 2527.202,1033 2526.219,1033L2491.781,1033C2490.798,1033 2490,1031.656 2490,1030L2490,1024C2490,1022.344 2490.798,1021 2491.781,1021L2526.219,1021C2527.202,1021 2528,1022.344 2528,1024Z" style="fill:white;"/>
            </g>
        </g>
        <g transform="matrix(1,0,0,1,332,3102.220472)">
            <g transform="matrix(0.842105,0,0,0.5,8009.229326,-2132.174884)">
                <path d="M2528,1024L2528,1030C2528,1031.656 2527.202,1033 2526.219,1033L2491.781,1033C2490.798,1033 2490,1031.656 2490,1030L2490,1024C2490,1022.344 2490.798,1021 2491.781,1021L2526.219,1021C2527.202,1021 2528,1022.344 2528,1024Z" style="fill:white;"/>
            </g>
        </g>
        <g transform="matrix(1,0,0,1,332,3102.220472)">
            <g transform="matrix(0.842105,0,0,0.5,8009.229326,-2031.718534)">
                <path d="M2528,1024L2528,1030C2528,1031.656 2527.202,1033 2526.219,1033L2491.781,1033C2490.798,1033 2490,1031.656 2490,1030L2490,1024C2490,1022.344 2490.798,1021 2491.781,1021L2526.219,1021C2527.202,1021 2528,1022.344 2528,1024Z" style="fill:white;"/>
            </g>
        </g>
        <g transform="matrix(1,0,0,1,1364.105151,-125.950702)">
            <path d="M8982.302,1294.353L8982.302,1297.558L8973.238,1297.558L8973.238,1321.251L8969.539,1321.251L8969.539,1297.558L8960.476,1297.558L8960.476,1294.353L8982.302,1294.353Z" style="fill:white;fill-rule:nonzero;"/>
        </g>
        <g transform="matrix(1,0,0,1,1364.105151,-125.950702)">
            <path d="M8998.14,1306.676C8999.849,1306.676 9001.201,1306.334 9002.196,1305.651C9003.191,1304.967 9003.688,1303.734 9003.688,1301.952C9003.688,1300.036 9002.993,1298.729 9001.601,1298.034C9000.856,1297.667 8999.862,1297.484 8998.616,1297.484L8989.718,1297.484L8989.718,1306.676L8998.14,1306.676ZM8986.074,1294.353L8998.525,1294.353C9000.576,1294.353 9002.266,1294.652 9003.597,1295.25C9006.124,1296.398 9007.387,1298.516 9007.387,1301.604C9007.387,1303.215 9007.055,1304.534 9006.389,1305.559C9005.724,1306.585 9004.793,1307.409 9003.597,1308.031C9004.647,1308.458 9005.437,1309.02 9005.968,1309.716C9006.499,1310.412 9006.795,1311.541 9006.856,1313.103L9006.984,1316.71C9007.021,1317.736 9007.106,1318.499 9007.241,1318.999C9007.46,1319.854 9007.851,1320.403 9008.413,1320.647L9008.413,1321.251L9003.945,1321.251C9003.823,1321.019 9003.725,1320.72 9003.652,1320.354C9003.579,1319.988 9003.518,1319.28 9003.469,1318.23L9003.249,1313.744C9003.164,1311.986 9002.51,1310.808 9001.29,1310.21C9000.594,1309.881 8999.501,1309.716 8998.012,1309.716L8989.718,1309.716L8989.718,1321.251L8986.074,1321.251L8986.074,1294.353Z" style="fill:white;fill-rule:nonzero;"/>
        </g>
        <g transform="matrix(1,0,0,1,1364.105151,-125.950702)">
            <path d="M9012.716,1294.353L9016.268,1294.353L9016.268,1307.464L9029.378,1294.353L9034.414,1294.353L9023.226,1305.193L9034.725,1321.251L9029.982,1321.251L9020.571,1307.756L9016.268,1311.876L9016.268,1321.251L9012.716,1321.251L9012.716,1294.353Z" style="fill:white;fill-rule:nonzero;"/>
        </g>
        <g transform="matrix(1,0,0,1,1364.105151,-125.950702)">
            <path d="M9048.879,1302.684L9048.879,1300.158C9051.259,1299.926 9052.919,1299.538 9053.859,1298.995C9054.799,1298.452 9055.501,1297.167 9055.965,1295.141L9058.565,1295.141L9058.565,1321.251L9055.05,1321.251L9055.05,1302.684L9048.879,1302.684Z" style="fill:white;fill-rule:nonzero;"/>
        </g>
        <g transform="matrix(1,0,0,1,1364.105151,-125.950702)">
            <path d="M9046.462,1421.251C9046.584,1418.993 9047.051,1417.028 9047.863,1415.355C9048.674,1413.683 9050.258,1412.163 9052.614,1410.796L9056.13,1408.764C9057.705,1407.848 9058.809,1407.067 9059.444,1406.42C9060.445,1405.407 9060.946,1404.247 9060.946,1402.941C9060.946,1401.415 9060.488,1400.203 9059.572,1399.306C9058.657,1398.409 9057.436,1397.96 9055.91,1397.96C9053.652,1397.96 9052.089,1398.815 9051.223,1400.524C9050.759,1401.439 9050.502,1402.709 9050.454,1404.332L9047.103,1404.332C9047.139,1402.05 9047.561,1400.188 9048.366,1398.748C9049.794,1396.209 9052.315,1394.939 9055.928,1394.939C9058.931,1394.939 9061.126,1395.751 9062.511,1397.374C9063.897,1398.998 9064.589,1400.805 9064.589,1402.794C9064.589,1404.894 9063.851,1406.688 9062.374,1408.178C9061.519,1409.044 9059.987,1410.094 9057.778,1411.327L9055.269,1412.719C9054.073,1413.378 9053.133,1414.006 9052.449,1414.605C9051.229,1415.667 9050.46,1416.845 9050.142,1418.139L9064.461,1418.139L9064.461,1421.251L9046.462,1421.251Z" style="fill:white;fill-rule:nonzero;"/>
        </g>
        <g transform="matrix(1,0,0,1,1364.105151,-125.950702)">
            <path d="M9055.031,1521.965C9051.931,1521.965 9049.682,1521.114 9048.284,1519.411C9046.886,1517.708 9046.187,1515.636 9046.187,1513.195L9049.63,1513.195C9049.776,1514.892 9050.094,1516.124 9050.582,1516.893C9051.436,1518.273 9052.98,1518.963 9055.214,1518.963C9056.948,1518.963 9058.339,1518.499 9059.389,1517.571C9060.439,1516.643 9060.964,1515.447 9060.964,1513.982C9060.964,1512.175 9060.411,1510.912 9059.307,1510.192C9058.202,1509.472 9056.667,1509.111 9054.702,1509.111C9054.482,1509.111 9054.259,1509.115 9054.033,1509.121C9053.807,1509.127 9053.579,1509.136 9053.347,1509.148L9053.347,1506.237C9053.688,1506.273 9053.975,1506.298 9054.207,1506.31C9054.439,1506.322 9054.689,1506.328 9054.958,1506.328C9056.191,1506.328 9057.204,1506.133 9057.998,1505.742C9059.389,1505.059 9060.085,1503.838 9060.085,1502.08C9060.085,1500.774 9059.621,1499.767 9058.693,1499.059C9057.766,1498.351 9056.685,1497.997 9055.452,1497.997C9053.255,1497.997 9051.735,1498.729 9050.893,1500.194C9050.429,1501 9050.167,1502.147 9050.106,1503.637L9046.846,1503.637C9046.846,1501.683 9047.237,1500.023 9048.018,1498.656C9049.361,1496.215 9051.723,1494.994 9055.104,1494.994C9057.778,1494.994 9059.847,1495.589 9061.312,1496.779C9062.777,1497.97 9063.509,1499.694 9063.509,1501.952C9063.509,1503.563 9063.076,1504.87 9062.209,1505.871C9061.672,1506.493 9060.976,1506.981 9060.122,1507.335C9061.501,1507.714 9062.578,1508.443 9063.353,1509.523C9064.129,1510.604 9064.516,1511.925 9064.516,1513.488C9064.516,1515.99 9063.692,1518.029 9062.044,1519.603C9060.396,1521.178 9058.059,1521.965 9055.031,1521.965Z" style="fill:white;fill-rule:nonzero;"/>
        </g>
        <g transform="matrix(1,0,0,1,1364.105151,-125.950702)">
            <path d="M9057.686,1611.968L9057.686,1600.084L9049.282,1611.968L9057.686,1611.968ZM9057.741,1621.251L9057.741,1614.843L9046.242,1614.843L9046.242,1611.62L9058.254,1594.957L9061.037,1594.957L9061.037,1611.968L9064.901,1611.968L9064.901,1614.843L9061.037,1614.843L9061.037,1621.251L9057.741,1621.251Z" style="fill:white;fill-rule:nonzero;"/>
        </g>
        <g transform="matrix(1,0,0,1,1364.105151,-125.950702)">
            <path d="M8973.439,1712.572C8973.525,1714.098 8973.885,1715.337 8974.52,1716.289C8975.728,1718.071 8977.858,1718.963 8980.91,1718.963C8982.277,1718.963 8983.522,1718.767 8984.646,1718.377C8986.818,1717.62 8987.905,1716.265 8987.905,1714.312C8987.905,1712.847 8987.447,1711.803 8986.531,1711.181C8985.604,1710.57 8984.151,1710.039 8982.174,1709.588L8978.53,1708.764C8976.149,1708.226 8974.465,1707.634 8973.476,1706.987C8971.767,1705.864 8970.913,1704.186 8970.913,1701.952C8970.913,1699.535 8971.749,1697.551 8973.421,1696.001C8975.094,1694.451 8977.462,1693.676 8980.526,1693.676C8983.345,1693.676 8985.741,1694.356 8987.713,1695.717C8989.684,1697.078 8990.67,1699.254 8990.67,1702.245L8987.246,1702.245C8987.063,1700.805 8986.672,1699.7 8986.074,1698.931C8984.963,1697.527 8983.077,1696.825 8980.416,1696.825C8978.267,1696.825 8976.723,1697.277 8975.783,1698.18C8974.843,1699.083 8974.373,1700.133 8974.373,1701.329C8974.373,1702.648 8974.923,1703.612 8976.021,1704.223C8976.741,1704.613 8978.371,1705.101 8980.91,1705.687L8984.682,1706.548C8986.501,1706.963 8987.905,1707.531 8988.894,1708.251C8990.603,1709.508 8991.457,1711.333 8991.457,1713.726C8991.457,1716.704 8990.374,1718.834 8988.207,1720.116C8986.04,1721.398 8983.522,1722.039 8980.654,1722.039C8977.309,1722.039 8974.691,1721.184 8972.799,1719.475C8970.906,1717.778 8969.979,1715.477 8970.015,1712.572L8973.439,1712.572Z" style="fill:white;fill-rule:nonzero;"/>
        </g>
        <g transform="matrix(1,0,0,1,1364.105151,-125.950702)">
            <path d="M9009.877,1710.228L9005.794,1698.345L9001.455,1710.228L9009.877,1710.228ZM9003.89,1694.353L9008.01,1694.353L9017.769,1721.251L9013.778,1721.251L9011.049,1713.195L9000.411,1713.195L8997.5,1721.251L8993.764,1721.251L9003.89,1694.353Z" style="fill:white;fill-rule:nonzero;"/>
        </g>
        <g transform="matrix(1,0,0,1,1364.105151,-125.950702)">
            <path d="M9021.431,1694.353L9040.09,1694.353L9040.09,1697.649L9025.075,1697.649L9025.075,1705.816L9038.277,1705.816L9038.277,1709.02L9025.075,1709.02L9025.075,1721.251L9021.431,1721.251L9021.431,1694.353Z" style="fill:white;fill-rule:nonzero;"/>
        </g>
        <g transform="matrix(1,0,0,1,1364.105151,-125.950702)">
            <path d="M9044.338,1694.353L9063.948,1694.353L9063.948,1697.649L9047.89,1697.649L9047.89,1705.816L9062.74,1705.816L9062.74,1708.928L9047.89,1708.928L9047.89,1718.047L9064.223,1718.047L9064.223,1721.251L9044.338,1721.251L9044.338,1694.353Z" style="fill:white;fill-rule:nonzero;"/>
        </g>
    </g>
</svg>
