<?xml version="1.0" encoding="UTF-8" standalone="no"?>
<!DOCTYPE svg PUBLIC "-//W3C//DTD SVG 1.1//EN" "http://www.w3.org/Graphics/SVG/1.1/DTD/svg11.dtd">
<svg width="100%" height="100%" viewBox="0 0 168 365" version="1.1" xmlns="http://www.w3.org/2000/svg" xmlns:xlink="http://www.w3.org/1999/xlink" xml:space="preserve" xmlns:serif="http://www.serif.com/" style="fill-rule:evenodd;clip-rule:evenodd;stroke-linejoin:round;stroke-miterlimit:2;">
    <g transform="matrix(1,0,0,1,-9616.635571,-1171.364487)">
        <g transform="matrix(1,0,0,1,0,3102.220472)">
            <g transform="matrix(0.842105,0,0,0.5,7655.499579,-2431.593231)">
                <path d="M2528,1024L2528,1030C2528,1031.656 2527.202,1033 2526.219,1033L2491.781,1033C2490.798,1033 2490,1031.656 2490,1030L2490,1024C2490,1022.344 2490.798,1021 2491.781,1021L2526.219,1021C2527.202,1021 2528,1022.344 2528,1024Z" style="fill:white;"/>
            </g>
            <g transform="matrix(0.842105,0,0,0.5,7655.499579,-2348.886881)">
                <path d="M2528,1024L2528,1030C2528,1031.656 2527.202,1033 2526.219,1033L2491.781,1033C2490.798,1033 2490,1031.656 2490,1030L2490,1024C2490,1022.344 2490.798,1021 2491.781,1021L2526.219,1021C2527.202,1021 2528,1022.344 2528,1024Z" style="fill:white;"/>
            </g>
            <g transform="matrix(0.842105,0,0,0.5,7655.499579,-2266.180532)">
                <path d="M2528,1024L2528,1030C2528,1031.656 2527.202,1033 2526.219,1033L2491.781,1033C2490.798,1033 2490,1031.656 2490,1030L2490,1024C2490,1022.344 2490.798,1021 2491.781,1021L2526.219,1021C2527.202,1021 2528,1022.344 2528,1024Z" style="fill:white;"/>
            </g>
            <g transform="matrix(0.842105,0,0,0.5,7655.499579,-2183.474182)">
                <path d="M2528,1024L2528,1030C2528,1031.656 2527.202,1033 2526.219,1033L2491.781,1033C2490.798,1033 2490,1031.656 2490,1030L2490,1024C2490,1022.344 2490.798,1021 2491.781,1021L2526.219,1021C2527.202,1021 2528,1022.344 2528,1024Z" style="fill:white;"/>
            </g>
            <g transform="matrix(0.842105,0,0,0.5,7655.499579,-2095.767832)">
                <path d="M2528,1024L2528,1030C2528,1031.656 2527.202,1033 2526.219,1033L2491.781,1033C2490.798,1033 2490,1031.656 2490,1030L2490,1024C2490,1022.344 2490.798,1021 2491.781,1021L2526.219,1021C2527.202,1021 2528,1022.344 2528,1024Z" style="fill:white;"/>
            </g>
            <g transform="matrix(1,0,0,1,667.901114,-3222.220472)">
                <path d="M8972.986,1291.364L8972.986,1294.925L8962.915,1294.925L8962.915,1321.251L8958.805,1321.251L8958.805,1294.925L8948.734,1294.925L8948.734,1291.364L8972.986,1291.364Z" style="fill:white;fill-rule:nonzero;"/>
            </g>
            <g transform="matrix(1,0,0,1,667.901114,-3222.220472)">
                <path d="M8990.584,1305.057C8992.483,1305.057 8993.985,1304.677 8995.091,1303.917C8996.196,1303.158 8996.749,1301.788 8996.749,1299.808C8996.749,1297.678 8995.976,1296.227 8994.429,1295.454C8993.602,1295.047 8992.497,1294.843 8991.113,1294.843L8981.226,1294.843L8981.226,1305.057L8990.584,1305.057ZM8977.177,1291.364L8991.011,1291.364C8993.29,1291.364 8995.169,1291.697 8996.647,1292.361C8999.455,1293.636 9000.858,1295.99 9000.858,1299.421C9000.858,1301.211 9000.489,1302.676 8999.75,1303.816C8999.01,1304.955 8997.976,1305.871 8996.647,1306.562C8997.814,1307.037 8998.692,1307.661 8999.282,1308.434C8999.872,1309.207 9000.201,1310.462 9000.268,1312.198L9000.411,1316.206C9000.452,1317.345 9000.547,1318.193 9000.696,1318.749C9000.94,1319.698 9001.374,1320.309 9001.998,1320.58L9001.998,1321.251L8997.034,1321.251C8996.898,1320.994 8996.789,1320.661 8996.708,1320.254C8996.627,1319.848 8996.559,1319.061 8996.505,1317.894L8996.26,1312.91C8996.166,1310.957 8995.44,1309.648 8994.084,1308.983C8993.31,1308.617 8992.097,1308.434 8990.442,1308.434L8981.226,1308.434L8981.226,1321.251L8977.177,1321.251L8977.177,1291.364Z" style="fill:white;fill-rule:nonzero;"/>
            </g>
            <g transform="matrix(1,0,0,1,667.901114,-3222.220472)">
                <path d="M9006.779,1291.364L9010.726,1291.364L9010.726,1305.932L9025.293,1291.364L9030.888,1291.364L9018.457,1303.409L9031.234,1321.251L9025.964,1321.251L9015.507,1306.257L9010.726,1310.835L9010.726,1321.251L9006.779,1321.251L9006.779,1291.364Z" style="fill:white;fill-rule:nonzero;"/>
            </g>
            <g transform="matrix(1,0,0,1,667.901114,-3222.220472)">
                <path d="M9046.96,1300.621L9046.96,1297.814C9049.605,1297.556 9051.45,1297.126 9052.494,1296.522C9053.539,1295.918 9054.318,1294.491 9054.834,1292.239L9057.723,1292.239L9057.723,1321.251L9053.817,1321.251L9053.817,1300.621L9046.96,1300.621Z" style="fill:white;fill-rule:nonzero;"/>
            </g>
            <g transform="matrix(1,0,0,1,667.901114,-3222.220472)">
                <path d="M9044.275,1404.585C9044.41,1402.075 9044.929,1399.892 9045.831,1398.034C9046.733,1396.175 9048.493,1394.487 9051.111,1392.968L9055.017,1390.709C9056.767,1389.692 9057.994,1388.824 9058.699,1388.105C9059.812,1386.979 9060.368,1385.691 9060.368,1384.24C9060.368,1382.544 9059.859,1381.198 9058.842,1380.201C9057.825,1379.204 9056.468,1378.706 9054.773,1378.706C9052.264,1378.706 9050.528,1379.655 9049.565,1381.554C9049.049,1382.571 9048.764,1383.982 9048.71,1385.786L9044.987,1385.786C9045.028,1383.25 9045.496,1381.181 9046.391,1379.581C9047.978,1376.759 9050.778,1375.349 9054.793,1375.349C9058.13,1375.349 9060.568,1376.251 9062.107,1378.055C9063.647,1379.859 9064.416,1381.866 9064.416,1384.077C9064.416,1386.41 9063.596,1388.404 9061.955,1390.058C9061.005,1391.021 9059.303,1392.188 9056.848,1393.558L9054.061,1395.104C9052.732,1395.836 9051.687,1396.535 9050.928,1397.199C9049.571,1398.379 9048.717,1399.688 9048.364,1401.126L9064.274,1401.126L9064.274,1404.585L9044.275,1404.585Z" style="fill:white;fill-rule:nonzero;"/>
            </g>
            <g transform="matrix(1,0,0,1,667.901114,-3222.220472)">
                <path d="M9053.796,1488.711C9050.351,1488.711 9047.852,1487.765 9046.299,1485.873C9044.746,1483.981 9043.97,1481.679 9043.97,1478.966L9047.795,1478.966C9047.957,1480.852 9048.31,1482.221 9048.852,1483.076C9049.802,1484.609 9051.518,1485.375 9054,1485.375C9055.926,1485.375 9057.472,1484.859 9058.638,1483.829C9059.805,1482.798 9060.388,1481.469 9060.388,1479.841C9060.388,1477.834 9059.774,1476.43 9058.547,1475.63C9057.319,1474.829 9055.614,1474.429 9053.43,1474.429C9053.186,1474.429 9052.938,1474.433 9052.688,1474.439C9052.437,1474.446 9052.182,1474.456 9051.925,1474.47L9051.925,1471.235C9052.304,1471.276 9052.623,1471.303 9052.881,1471.316C9053.138,1471.33 9053.417,1471.337 9053.715,1471.337C9055.085,1471.337 9056.211,1471.12 9057.092,1470.686C9058.638,1469.926 9059.412,1468.57 9059.412,1466.617C9059.412,1465.165 9058.896,1464.047 9057.865,1463.26C9056.835,1462.473 9055.634,1462.08 9054.264,1462.08C9051.823,1462.08 9050.134,1462.894 9049.198,1464.521C9048.683,1465.416 9048.391,1466.691 9048.323,1468.346L9044.702,1468.346C9044.702,1466.176 9045.136,1464.331 9046.004,1462.812C9047.496,1460.1 9050.121,1458.743 9053.878,1458.743C9056.848,1458.743 9059.147,1459.404 9060.775,1460.727C9062.402,1462.049 9063.216,1463.965 9063.216,1466.474C9063.216,1468.265 9062.735,1469.716 9061.772,1470.828C9061.175,1471.52 9060.402,1472.062 9059.452,1472.456C9060.985,1472.876 9062.182,1473.687 9063.043,1474.887C9063.904,1476.087 9064.335,1477.556 9064.335,1479.292C9064.335,1482.072 9063.42,1484.337 9061.588,1486.087C9059.757,1487.837 9057.16,1488.711 9053.796,1488.711Z" style="fill:white;fill-rule:nonzero;"/>
            </g>
            <g transform="matrix(1,0,0,1,667.901114,-3222.220472)">
                <path d="M9056.746,1560.936L9056.746,1547.732L9047.408,1560.936L9056.746,1560.936ZM9056.807,1571.251L9056.807,1564.131L9044.031,1564.131L9044.031,1560.55L9057.377,1542.036L9060.469,1542.036L9060.469,1560.936L9064.762,1560.936L9064.762,1564.131L9060.469,1564.131L9060.469,1571.251L9056.807,1571.251Z" style="fill:white;fill-rule:nonzero;"/>
            </g>
            <g transform="matrix(1,0,0,1,667.901114,-3222.220472)">
                <path d="M8963.139,1644.941C8963.234,1646.637 8963.634,1648.013 8964.339,1649.071C8965.682,1651.051 8968.049,1652.042 8971.44,1652.042C8972.959,1652.042 8974.342,1651.825 8975.59,1651.391C8978.004,1650.55 8979.211,1649.044 8979.211,1646.874C8979.211,1645.246 8978.703,1644.087 8977.685,1643.395C8976.655,1642.717 8975.041,1642.127 8972.843,1641.625L8968.795,1640.709C8966.15,1640.113 8964.278,1639.455 8963.179,1638.736C8961.281,1637.488 8960.331,1635.623 8960.331,1633.141C8960.331,1630.455 8961.26,1628.251 8963.118,1626.529C8964.977,1624.806 8967.608,1623.945 8971.012,1623.945C8974.145,1623.945 8976.807,1624.701 8978.998,1626.214C8981.188,1627.726 8982.283,1630.144 8982.283,1633.467L8978.479,1633.467C8978.275,1631.866 8977.841,1630.639 8977.177,1629.784C8975.943,1628.224 8973.847,1627.444 8970.89,1627.444C8968.503,1627.444 8966.787,1627.946 8965.743,1628.95C8964.699,1629.954 8964.176,1631.12 8964.176,1632.449C8964.176,1633.914 8964.787,1634.986 8966.007,1635.664C8966.808,1636.098 8968.618,1636.64 8971.44,1637.291L8975.631,1638.248C8977.652,1638.709 8979.211,1639.339 8980.31,1640.14C8982.209,1641.537 8983.158,1643.564 8983.158,1646.223C8983.158,1649.532 8981.955,1651.899 8979.547,1653.323C8977.14,1654.747 8974.342,1655.46 8971.155,1655.46C8967.438,1655.46 8964.529,1654.51 8962.427,1652.611C8960.324,1650.726 8959.294,1648.169 8959.334,1644.941L8963.139,1644.941Z" style="fill:white;fill-rule:nonzero;"/>
            </g>
            <g transform="matrix(1,0,0,1,667.901114,-3222.220472)">
                <path d="M9003.625,1642.337L8999.088,1629.133L8994.267,1642.337L9003.625,1642.337ZM8996.973,1624.698L9001.55,1624.698L9012.394,1654.585L9007.959,1654.585L9004.927,1645.633L8993.107,1645.633L8989.872,1654.585L8985.722,1654.585L8996.973,1624.698Z" style="fill:white;fill-rule:nonzero;"/>
            </g>
            <g transform="matrix(1,0,0,1,667.901114,-3222.220472)">
                <path d="M9016.463,1624.698L9037.195,1624.698L9037.195,1628.36L9020.512,1628.36L9020.512,1637.434L9035.181,1637.434L9035.181,1640.994L9020.512,1640.994L9020.512,1654.585L9016.463,1654.585L9016.463,1624.698Z" style="fill:white;fill-rule:nonzero;"/>
            </g>
            <g transform="matrix(1,0,0,1,667.901114,-3222.220472)">
                <path d="M9041.915,1624.698L9063.704,1624.698L9063.704,1628.36L9045.862,1628.36L9045.862,1637.434L9062.362,1637.434L9062.362,1640.892L9045.862,1640.892L9045.862,1651.024L9064.01,1651.024L9064.01,1654.585L9041.915,1654.585L9041.915,1624.698Z" style="fill:white;fill-rule:nonzero;"/>
            </g>
        </g>
    </g>
</svg>
